<?xml version="1.0" encoding="UTF-8"?>
<svg class="" enable-background="new 0 0 512 512" version="1.1" viewBox="0 0 512 512" xml:space="preserve" xmlns="http://www.w3.org/2000/svg">
<g xmlns="http://www.w3.org/2000/svg">
	
		<path class="" d="M53.333,224C23.936,224,0,247.936,0,277.333V448c0,29.397,23.936,53.333,53.333,53.333h64    c12.011,0,23.061-4.053,32-10.795V224H53.333z" fill="#fff" style="" data-original="#000000"/>
	
</g>
<g xmlns="http://www.w3.org/2000/svg">
	
		<path class="" d="m512 304c0-12.821-5.077-24.768-13.888-33.579 9.963-10.901 15.04-25.515 13.653-40.725-2.496-27.115-26.923-48.363-55.637-48.363h-131.78c6.528-19.819 16.981-56.149 16.981-85.333 0-46.272-39.317-85.333-64-85.333-22.165 0-37.995 12.48-38.677 12.992-2.517 2.027-3.989 5.099-3.989 8.341v72.341l-61.44 133.1-2.56 1.301v228.65c17.365 8.192 39.338 12.608 53.333 12.608h195.82c23.232 0 43.563-15.659 48.341-37.269 2.453-11.115 1.024-22.315-3.861-32.043 15.765-7.936 26.368-24.171 26.368-42.688 0-7.552-1.728-14.784-5.013-21.333 15.765-7.936 26.346-24.171 26.346-42.667z" fill="#fff" style="" data-original="#000000"/>
	
</g>
</svg>
